<mxfile host="app.diagrams.net" agent="Mozilla/5.0 (Windows NT 10.0; Win64; x64) AppleWebKit/537.36 (KHTML, like Gecko) Chrome/128.0.0.0 Safari/537.36" version="24.7.12">
  <diagram name="Page-1" id="929967ad-93f9-6ef4-fab6-5d389245f69c">
    <mxGraphModel dx="5573.5" dy="1550" grid="1" gridSize="10" guides="1" tooltips="1" connect="1" arrows="1" fold="1" page="1" pageScale="1.5" pageWidth="1169" pageHeight="826" background="none" math="0" shadow="0">
      <root>
        <mxCell id="0" style=";html=1;" />
        <mxCell id="1" style=";html=1;" parent="0" />
        <mxCell id="K-4Sev6lLw2hqcVgsduo-152" value="" style="html=1;whiteSpace=wrap;rounded=1;strokeColor=#7030a0;strokeWidth=1.5;align=center;verticalAlign=middle;fontFamily=Helvetica;fontSize=12;fontColor=default;fillColor=none;movable=1;resizable=1;rotatable=1;deletable=1;editable=1;locked=0;connectable=1;" vertex="1" parent="1">
          <mxGeometry x="-9.5" y="120" width="1389.5" height="240" as="geometry" />
        </mxCell>
        <mxCell id="K-4Sev6lLw2hqcVgsduo-151" value="" style="html=1;whiteSpace=wrap;rounded=1;strokeColor=#000000;strokeWidth=1.5;align=center;verticalAlign=middle;fontFamily=Helvetica;fontSize=12;fontColor=default;fillColor=none;movable=1;resizable=1;rotatable=1;deletable=1;editable=1;locked=0;connectable=1;" vertex="1" parent="1">
          <mxGeometry y="380" width="1389.5" height="340" as="geometry" />
        </mxCell>
        <mxCell id="K-4Sev6lLw2hqcVgsduo-67" value="" style="html=1;whiteSpace=wrap;rounded=1;strokeColor=#7030a0;strokeWidth=1.5;align=center;verticalAlign=middle;fontFamily=Helvetica;fontSize=12;fontColor=default;fillColor=none;movable=1;resizable=1;rotatable=1;deletable=1;editable=1;locked=0;connectable=1;" vertex="1" parent="1">
          <mxGeometry x="0.5" y="730" width="1389.5" height="410" as="geometry" />
        </mxCell>
        <mxCell id="K-4Sev6lLw2hqcVgsduo-156" value="" style="rounded=0;whiteSpace=wrap;html=1;dashed=1;dashPattern=8 8;strokeColor=#000000;strokeWidth=1.5;align=center;verticalAlign=middle;fontFamily=Helvetica;fontSize=15;fontColor=default;fillColor=none;movable=1;resizable=1;rotatable=1;deletable=1;editable=1;locked=0;connectable=1;" vertex="1" parent="1">
          <mxGeometry x="-40" y="60" width="1480" height="1110" as="geometry" />
        </mxCell>
        <mxCell id="K-4Sev6lLw2hqcVgsduo-8" style="edgeStyle=orthogonalEdgeStyle;rounded=0;orthogonalLoop=1;jettySize=auto;html=1;exitX=0.5;exitY=1;exitDx=0;exitDy=0;movable=1;resizable=1;rotatable=1;deletable=1;editable=1;locked=0;connectable=1;" edge="1" parent="1">
          <mxGeometry relative="1" as="geometry">
            <mxPoint x="175" y="655" as="sourcePoint" />
            <mxPoint x="175" y="655" as="targetPoint" />
          </mxGeometry>
        </mxCell>
        <mxCell id="K-4Sev6lLw2hqcVgsduo-20" value="Hardware component" style="html=1;whiteSpace=wrap;strokeColor=#7f7f7f;fillColor=#d9d9d9;strokeWidth=1.5;movable=1;resizable=1;rotatable=1;deletable=1;editable=1;locked=0;connectable=1;fontSize=15;" vertex="1" parent="1">
          <mxGeometry x="1480" y="880" width="170" height="50" as="geometry" />
        </mxCell>
        <mxCell id="K-4Sev6lLw2hqcVgsduo-21" value="This Software&lt;div style=&quot;font-size: 15px;&quot;&gt;Element&lt;/div&gt;" style="html=1;whiteSpace=wrap;strokeColor=#000000;fillColor=none;strokeWidth=1.5;dashed=1;dashPattern=8 8;movable=1;resizable=1;rotatable=1;deletable=1;editable=1;locked=0;connectable=1;fontSize=15;" vertex="1" parent="1">
          <mxGeometry x="1480" y="790" width="170" height="50" as="geometry" />
        </mxCell>
        <mxCell id="K-4Sev6lLw2hqcVgsduo-22" value="Safety Software&lt;div style=&quot;font-size: 15px;&quot;&gt;Component in Element&lt;/div&gt;" style="html=1;whiteSpace=wrap;strokeColor=#7030a0;fillColor=#f8cbad;strokeWidth=1.5;rounded=1;movable=1;resizable=1;rotatable=1;deletable=1;editable=1;locked=0;connectable=1;fontSize=15;" vertex="1" parent="1">
          <mxGeometry x="1480" y="710" width="170" height="50" as="geometry" />
        </mxCell>
        <mxCell id="K-4Sev6lLw2hqcVgsduo-23" value="Non-Safety Software&lt;div style=&quot;font-size: 15px;&quot;&gt;Component in Element&lt;/div&gt;" style="html=1;whiteSpace=wrap;strokeColor=#7030a0;fillColor=#b4c7e7;strokeWidth=1.5;rounded=1;movable=1;resizable=1;rotatable=1;deletable=1;editable=1;locked=0;connectable=1;fontSize=15;" vertex="1" parent="1">
          <mxGeometry x="1480" y="630" width="170" height="50" as="geometry" />
        </mxCell>
        <mxCell id="K-4Sev6lLw2hqcVgsduo-24" value="Open Souce&lt;div style=&quot;font-size: 15px;&quot;&gt;Element/Component/&lt;/div&gt;&lt;div style=&quot;font-size: 15px;&quot;&gt;Component Set&lt;/div&gt;" style="html=1;whiteSpace=wrap;strokeColor=#000000;fillColor=none;strokeWidth=1.5;rounded=1;movable=1;resizable=1;rotatable=1;deletable=1;editable=1;locked=0;connectable=1;fontSize=15;" vertex="1" parent="1">
          <mxGeometry x="1480" y="550" width="170" height="50" as="geometry" />
        </mxCell>
        <mxCell id="K-4Sev6lLw2hqcVgsduo-25" value="Axera Software&lt;div style=&quot;font-size: 15px;&quot;&gt;Component Set&lt;/div&gt;" style="html=1;whiteSpace=wrap;strokeColor=#7030a0;fillColor=none;strokeWidth=1.5;rounded=1;movable=1;resizable=1;rotatable=1;deletable=1;editable=1;locked=0;connectable=1;fontSize=15;" vertex="1" parent="1">
          <mxGeometry x="1480" y="470" width="170" height="50" as="geometry" />
        </mxCell>
        <mxCell id="K-4Sev6lLw2hqcVgsduo-26" value="Other Software&lt;div style=&quot;font-size: 15px;&quot;&gt;Element/Componet&lt;/div&gt;&lt;div style=&quot;font-size: 15px;&quot;&gt;Outside this Element&lt;/div&gt;" style="html=1;whiteSpace=wrap;strokeColor=#000000;fillColor=#a6a6a6;strokeWidth=1.5;rounded=1;dashed=1;dashPattern=8 8;movable=1;resizable=1;rotatable=1;deletable=1;editable=1;locked=0;connectable=1;fontSize=15;" vertex="1" parent="1">
          <mxGeometry x="1480" y="390" width="170" height="50" as="geometry" />
        </mxCell>
        <mxCell id="K-4Sev6lLw2hqcVgsduo-28" value="«component&lt;span style=&quot;background-color: initial; font-size: 15px;&quot;&gt;»&lt;/span&gt;&lt;div style=&quot;font-size: 15px;&quot;&gt;&lt;b style=&quot;font-size: 15px;&quot;&gt;S01E01C01&lt;/b&gt;&lt;/div&gt;&lt;div style=&quot;font-size: 15px;&quot;&gt;&lt;b style=&quot;font-size: 15px;&quot;&gt;UART Driver&lt;/b&gt;&lt;/div&gt;" style="html=1;dropTarget=0;whiteSpace=wrap;rounded=1;strokeColor=#7030a0;strokeWidth=1.5;align=center;verticalAlign=middle;fontFamily=Helvetica;fontSize=15;fontColor=default;fillColor=#f8cbad;movable=1;resizable=1;rotatable=1;deletable=1;editable=1;locked=0;connectable=1;" vertex="1" parent="1">
          <mxGeometry x="390" y="1060" width="170" height="60" as="geometry" />
        </mxCell>
        <mxCell id="K-4Sev6lLw2hqcVgsduo-29" value="" style="shape=module;jettyWidth=8;jettyHeight=4;rounded=1;strokeColor=#7030a0;strokeWidth=1.5;align=center;verticalAlign=middle;fontFamily=Helvetica;fontSize=12;fontColor=default;fillColor=#f8cbad;movable=1;resizable=1;rotatable=1;deletable=1;editable=1;locked=0;connectable=1;" vertex="1" parent="K-4Sev6lLw2hqcVgsduo-28">
          <mxGeometry x="1" width="20" height="20" relative="1" as="geometry">
            <mxPoint x="-27" y="7" as="offset" />
          </mxGeometry>
        </mxCell>
        <mxCell id="K-4Sev6lLw2hqcVgsduo-31" value="«component»&lt;br&gt;&lt;b&gt;Hardware&lt;/b&gt;" style="html=1;dropTarget=0;whiteSpace=wrap;strokeColor=#7f7f7f;strokeWidth=1.5;align=center;verticalAlign=middle;fontFamily=Helvetica;fontSize=12;fontColor=default;fillColor=#d9d9d9;movable=1;resizable=1;rotatable=1;deletable=1;editable=1;locked=0;connectable=1;" vertex="1" parent="1">
          <mxGeometry x="-45.25" y="1200" width="1480" height="90" as="geometry" />
        </mxCell>
        <mxCell id="K-4Sev6lLw2hqcVgsduo-32" value="" style="shape=module;jettyWidth=8;jettyHeight=4;strokeColor=#7f7f7f;strokeWidth=1.5;align=center;verticalAlign=middle;fontFamily=Helvetica;fontSize=12;fontColor=default;fillColor=#d9d9d9;movable=1;resizable=1;rotatable=1;deletable=1;editable=1;locked=0;connectable=1;" vertex="1" parent="K-4Sev6lLw2hqcVgsduo-31">
          <mxGeometry x="1" width="20" height="20" relative="1" as="geometry">
            <mxPoint x="-27" y="7" as="offset" />
          </mxGeometry>
        </mxCell>
        <mxCell id="K-4Sev6lLw2hqcVgsduo-35" value="«component&lt;span style=&quot;background-color: initial; font-size: 15px;&quot;&gt;»&lt;/span&gt;&lt;div style=&quot;font-size: 15px;&quot;&gt;&lt;b style=&quot;font-size: 15px;&quot;&gt;S01E01C02&lt;/b&gt;&lt;/div&gt;&lt;div style=&quot;font-size: 15px;&quot;&gt;&lt;b style=&quot;font-size: 15px;&quot;&gt;Reset Driver&lt;/b&gt;&lt;/div&gt;" style="html=1;dropTarget=0;whiteSpace=wrap;rounded=1;strokeColor=#7030a0;strokeWidth=1.5;align=center;verticalAlign=middle;fontFamily=Helvetica;fontSize=15;fontColor=default;fillColor=#f8cbad;movable=1;resizable=1;rotatable=1;deletable=1;editable=1;locked=0;connectable=1;" vertex="1" parent="1">
          <mxGeometry x="640" y="1060" width="170" height="60" as="geometry" />
        </mxCell>
        <mxCell id="K-4Sev6lLw2hqcVgsduo-36" value="" style="shape=module;jettyWidth=8;jettyHeight=4;rounded=1;strokeColor=#7030a0;strokeWidth=1.5;align=center;verticalAlign=middle;fontFamily=Helvetica;fontSize=12;fontColor=default;fillColor=#f8cbad;movable=1;resizable=1;rotatable=1;deletable=1;editable=1;locked=0;connectable=1;" vertex="1" parent="K-4Sev6lLw2hqcVgsduo-35">
          <mxGeometry x="1" width="20" height="20" relative="1" as="geometry">
            <mxPoint x="-27" y="7" as="offset" />
          </mxGeometry>
        </mxCell>
        <mxCell id="K-4Sev6lLw2hqcVgsduo-37" value="«component&lt;span style=&quot;background-color: initial; font-size: 15px;&quot;&gt;»&lt;/span&gt;&lt;div style=&quot;font-size: 15px;&quot;&gt;&lt;b style=&quot;font-size: 15px;&quot;&gt;S01E01C03&lt;/b&gt;&lt;/div&gt;&lt;div style=&quot;font-size: 15px;&quot;&gt;&lt;b style=&quot;font-size: 15px;&quot;&gt;Clock Driver&lt;/b&gt;&lt;/div&gt;" style="html=1;dropTarget=0;whiteSpace=wrap;rounded=1;strokeColor=#7030a0;strokeWidth=1.5;align=center;verticalAlign=middle;fontFamily=Helvetica;fontSize=15;fontColor=default;fillColor=#f8cbad;movable=1;resizable=1;rotatable=1;deletable=1;editable=1;locked=0;connectable=1;" vertex="1" parent="1">
          <mxGeometry x="877" y="1060" width="170" height="60" as="geometry" />
        </mxCell>
        <mxCell id="K-4Sev6lLw2hqcVgsduo-38" value="" style="shape=module;jettyWidth=8;jettyHeight=4;rounded=1;strokeColor=#7030a0;strokeWidth=1.5;align=center;verticalAlign=middle;fontFamily=Helvetica;fontSize=12;fontColor=default;fillColor=#f8cbad;movable=1;resizable=1;rotatable=1;deletable=1;editable=1;locked=0;connectable=1;" vertex="1" parent="K-4Sev6lLw2hqcVgsduo-37">
          <mxGeometry x="1" width="20" height="20" relative="1" as="geometry">
            <mxPoint x="-27" y="7" as="offset" />
          </mxGeometry>
        </mxCell>
        <mxCell id="K-4Sev6lLw2hqcVgsduo-39" value="«component&lt;span style=&quot;background-color: initial; font-size: 15px;&quot;&gt;»&lt;/span&gt;&lt;div style=&quot;font-size: 15px;&quot;&gt;&lt;b style=&quot;font-size: 15px;&quot;&gt;S01E01C04&lt;/b&gt;&lt;/div&gt;&lt;div style=&quot;font-size: 15px;&quot;&gt;&lt;b style=&quot;font-size: 15px;&quot;&gt;Mailbox Driver&lt;/b&gt;&lt;/div&gt;" style="html=1;dropTarget=0;whiteSpace=wrap;rounded=1;strokeColor=#7030a0;strokeWidth=1.5;align=center;verticalAlign=middle;fontFamily=Helvetica;fontSize=15;fontColor=default;fillColor=#f8cbad;movable=1;resizable=1;rotatable=1;deletable=1;editable=1;locked=0;connectable=1;" vertex="1" parent="1">
          <mxGeometry x="1130" y="1060" width="170" height="60" as="geometry" />
        </mxCell>
        <mxCell id="K-4Sev6lLw2hqcVgsduo-40" value="" style="shape=module;jettyWidth=8;jettyHeight=4;rounded=1;strokeColor=#7030a0;strokeWidth=1.5;align=center;verticalAlign=middle;fontFamily=Helvetica;fontSize=12;fontColor=default;fillColor=#f8cbad;movable=1;resizable=1;rotatable=1;deletable=1;editable=1;locked=0;connectable=1;" vertex="1" parent="K-4Sev6lLw2hqcVgsduo-39">
          <mxGeometry x="1" width="20" height="20" relative="1" as="geometry">
            <mxPoint x="-27" y="7" as="offset" />
          </mxGeometry>
        </mxCell>
        <mxCell id="K-4Sev6lLw2hqcVgsduo-43" value="«component&lt;span style=&quot;background-color: initial; font-size: 15px;&quot;&gt;»&lt;/span&gt;&lt;div style=&quot;font-size: 15px;&quot;&gt;&lt;b style=&quot;font-size: 15px;&quot;&gt;S01E01C05&lt;/b&gt;&lt;/div&gt;&lt;div style=&quot;font-size: 15px;&quot;&gt;&lt;b style=&quot;font-size: 15px;&quot;&gt;IPC Driver&lt;/b&gt;&lt;/div&gt;" style="html=1;dropTarget=0;whiteSpace=wrap;rounded=1;strokeColor=#7030a0;strokeWidth=1.5;align=center;verticalAlign=middle;fontFamily=Helvetica;fontSize=15;fontColor=default;fillColor=#f8cbad;movable=1;resizable=1;rotatable=1;deletable=1;editable=1;locked=0;connectable=1;" vertex="1" parent="1">
          <mxGeometry x="390" y="960" width="170" height="60" as="geometry" />
        </mxCell>
        <mxCell id="K-4Sev6lLw2hqcVgsduo-44" value="" style="shape=module;jettyWidth=8;jettyHeight=4;rounded=1;strokeColor=#7030a0;strokeWidth=1.5;align=center;verticalAlign=middle;fontFamily=Helvetica;fontSize=12;fontColor=default;fillColor=#f8cbad;movable=1;resizable=1;rotatable=1;deletable=1;editable=1;locked=0;connectable=1;" vertex="1" parent="K-4Sev6lLw2hqcVgsduo-43">
          <mxGeometry x="1" width="20" height="20" relative="1" as="geometry">
            <mxPoint x="-27" y="7" as="offset" />
          </mxGeometry>
        </mxCell>
        <mxCell id="K-4Sev6lLw2hqcVgsduo-45" value="«component&lt;span style=&quot;background-color: initial; font-size: 15px;&quot;&gt;»&lt;/span&gt;&lt;div style=&quot;font-size: 15px;&quot;&gt;&lt;b style=&quot;font-size: 15px;&quot;&gt;S01E01C06&lt;/b&gt;&lt;/div&gt;&lt;div style=&quot;font-size: 15px;&quot;&gt;&lt;b style=&quot;font-size: 15px;&quot;&gt;PINCTRL Driver&lt;/b&gt;&lt;/div&gt;" style="html=1;dropTarget=0;whiteSpace=wrap;rounded=1;strokeColor=#7030a0;strokeWidth=1.5;align=center;verticalAlign=middle;fontFamily=Helvetica;fontSize=15;fontColor=default;fillColor=#f8cbad;movable=1;resizable=1;rotatable=1;deletable=1;editable=1;locked=0;connectable=1;" vertex="1" parent="1">
          <mxGeometry x="640" y="960" width="170" height="60" as="geometry" />
        </mxCell>
        <mxCell id="K-4Sev6lLw2hqcVgsduo-46" value="" style="shape=module;jettyWidth=8;jettyHeight=4;rounded=1;strokeColor=#7030a0;strokeWidth=1.5;align=center;verticalAlign=middle;fontFamily=Helvetica;fontSize=12;fontColor=default;fillColor=#f8cbad;movable=1;resizable=1;rotatable=1;deletable=1;editable=1;locked=0;connectable=1;" vertex="1" parent="K-4Sev6lLw2hqcVgsduo-45">
          <mxGeometry x="1" width="20" height="20" relative="1" as="geometry">
            <mxPoint x="-27" y="7" as="offset" />
          </mxGeometry>
        </mxCell>
        <mxCell id="K-4Sev6lLw2hqcVgsduo-47" value="«component&lt;span style=&quot;background-color: initial; font-size: 15px;&quot;&gt;»&lt;/span&gt;&lt;div style=&quot;font-size: 15px;&quot;&gt;&lt;b style=&quot;font-size: 15px;&quot;&gt;S01E01C07&lt;/b&gt;&lt;/div&gt;&lt;div style=&quot;font-size: 15px;&quot;&gt;&lt;b style=&quot;font-size: 15px;&quot;&gt;GPIO Driver&lt;/b&gt;&lt;/div&gt;" style="html=1;dropTarget=0;whiteSpace=wrap;rounded=1;strokeColor=#7030a0;strokeWidth=1.5;align=center;verticalAlign=middle;fontFamily=Helvetica;fontSize=15;fontColor=default;fillColor=#f8cbad;movable=1;resizable=1;rotatable=1;deletable=1;editable=1;locked=0;connectable=1;" vertex="1" parent="1">
          <mxGeometry x="877" y="960" width="170" height="60" as="geometry" />
        </mxCell>
        <mxCell id="K-4Sev6lLw2hqcVgsduo-48" value="" style="shape=module;jettyWidth=8;jettyHeight=4;rounded=1;strokeColor=#7030a0;strokeWidth=1.5;align=center;verticalAlign=middle;fontFamily=Helvetica;fontSize=12;fontColor=default;fillColor=#f8cbad;movable=1;resizable=1;rotatable=1;deletable=1;editable=1;locked=0;connectable=1;" vertex="1" parent="K-4Sev6lLw2hqcVgsduo-47">
          <mxGeometry x="1" width="20" height="20" relative="1" as="geometry">
            <mxPoint x="-27" y="7" as="offset" />
          </mxGeometry>
        </mxCell>
        <mxCell id="K-4Sev6lLw2hqcVgsduo-49" value="«component&lt;span style=&quot;background-color: initial; font-size: 15px;&quot;&gt;»&lt;/span&gt;&lt;div style=&quot;font-size: 15px;&quot;&gt;&lt;b style=&quot;font-size: 15px;&quot;&gt;S01E01C08&lt;/b&gt;&lt;/div&gt;&lt;div style=&quot;font-size: 15px;&quot;&gt;&lt;b style=&quot;font-size: 15px;&quot;&gt;OSPI Driver&lt;/b&gt;&lt;/div&gt;" style="html=1;dropTarget=0;whiteSpace=wrap;rounded=1;strokeColor=#7030a0;strokeWidth=1.5;align=center;verticalAlign=middle;fontFamily=Helvetica;fontSize=15;fontColor=default;fillColor=#f8cbad;movable=1;resizable=1;rotatable=1;deletable=1;editable=1;locked=0;connectable=1;" vertex="1" parent="1">
          <mxGeometry x="877" y="860" width="170" height="60" as="geometry" />
        </mxCell>
        <mxCell id="K-4Sev6lLw2hqcVgsduo-50" value="" style="shape=module;jettyWidth=8;jettyHeight=4;rounded=1;strokeColor=#7030a0;strokeWidth=1.5;align=center;verticalAlign=middle;fontFamily=Helvetica;fontSize=12;fontColor=default;fillColor=#f8cbad;movable=1;resizable=1;rotatable=1;deletable=1;editable=1;locked=0;connectable=1;" vertex="1" parent="K-4Sev6lLw2hqcVgsduo-49">
          <mxGeometry x="1" width="20" height="20" relative="1" as="geometry">
            <mxPoint x="-27" y="7" as="offset" />
          </mxGeometry>
        </mxCell>
        <mxCell id="K-4Sev6lLw2hqcVgsduo-51" value="«component&lt;span style=&quot;background-color: initial; font-size: 15px;&quot;&gt;»&lt;/span&gt;&lt;div style=&quot;font-size: 15px;&quot;&gt;&lt;b style=&quot;font-size: 15px;&quot;&gt;S01E01C09&lt;/b&gt;&lt;/div&gt;&lt;div style=&quot;font-size: 15px;&quot;&gt;&lt;b style=&quot;font-size: 15px;&quot;&gt;Ethernet Driver&lt;/b&gt;&lt;/div&gt;" style="html=1;dropTarget=0;whiteSpace=wrap;rounded=1;strokeColor=#7030a0;strokeWidth=1.5;align=center;verticalAlign=middle;fontFamily=Helvetica;fontSize=15;fontColor=default;fillColor=#f8cbad;movable=1;resizable=1;rotatable=1;deletable=1;editable=1;locked=0;connectable=1;" vertex="1" parent="1">
          <mxGeometry x="390" y="860" width="170" height="60" as="geometry" />
        </mxCell>
        <mxCell id="K-4Sev6lLw2hqcVgsduo-52" value="" style="shape=module;jettyWidth=8;jettyHeight=4;rounded=1;strokeColor=#7030a0;strokeWidth=1.5;align=center;verticalAlign=middle;fontFamily=Helvetica;fontSize=12;fontColor=default;fillColor=#f8cbad;movable=1;resizable=1;rotatable=1;deletable=1;editable=1;locked=0;connectable=1;" vertex="1" parent="K-4Sev6lLw2hqcVgsduo-51">
          <mxGeometry x="1" width="20" height="20" relative="1" as="geometry">
            <mxPoint x="-27" y="7" as="offset" />
          </mxGeometry>
        </mxCell>
        <mxCell id="K-4Sev6lLw2hqcVgsduo-53" value="«component&lt;span style=&quot;background-color: initial; font-size: 15px;&quot;&gt;»&lt;/span&gt;&lt;div style=&quot;font-size: 15px;&quot;&gt;&lt;b style=&quot;font-size: 15px;&quot;&gt;S01E01C10&lt;/b&gt;&lt;/div&gt;&lt;div style=&quot;font-size: 15px;&quot;&gt;&lt;b style=&quot;font-size: 15px;&quot;&gt;SDHCI Driver&lt;/b&gt;&lt;/div&gt;" style="html=1;dropTarget=0;whiteSpace=wrap;rounded=1;strokeColor=#7030a0;strokeWidth=1.5;align=center;verticalAlign=middle;fontFamily=Helvetica;fontSize=15;fontColor=default;fillColor=#f8cbad;movable=1;resizable=1;rotatable=1;deletable=1;editable=1;locked=0;connectable=1;" vertex="1" parent="1">
          <mxGeometry x="1130" y="860" width="170" height="60" as="geometry" />
        </mxCell>
        <mxCell id="K-4Sev6lLw2hqcVgsduo-54" value="" style="shape=module;jettyWidth=8;jettyHeight=4;rounded=1;strokeColor=#7030a0;strokeWidth=1.5;align=center;verticalAlign=middle;fontFamily=Helvetica;fontSize=12;fontColor=default;fillColor=#f8cbad;movable=1;resizable=1;rotatable=1;deletable=1;editable=1;locked=0;connectable=1;" vertex="1" parent="K-4Sev6lLw2hqcVgsduo-53">
          <mxGeometry x="1" width="20" height="20" relative="1" as="geometry">
            <mxPoint x="-27" y="7" as="offset" />
          </mxGeometry>
        </mxCell>
        <mxCell id="K-4Sev6lLw2hqcVgsduo-55" value="«component&lt;span style=&quot;background-color: initial; font-size: 15px;&quot;&gt;»&lt;/span&gt;&lt;div style=&quot;font-size: 15px;&quot;&gt;&lt;b style=&quot;font-size: 15px;&quot;&gt;S01E01C11&lt;/b&gt;&lt;/div&gt;&lt;div style=&quot;font-size: 15px;&quot;&gt;&lt;b style=&quot;font-size: 15px;&quot;&gt;Nor/Nand/Hyper Driver&lt;/b&gt;&lt;/div&gt;" style="html=1;dropTarget=0;whiteSpace=wrap;rounded=1;strokeColor=#7030a0;strokeWidth=1.5;align=center;verticalAlign=middle;fontFamily=Helvetica;fontSize=15;fontColor=default;fillColor=#f8cbad;movable=1;resizable=1;rotatable=1;deletable=1;editable=1;locked=0;connectable=1;" vertex="1" parent="1">
          <mxGeometry x="640" y="860" width="170" height="60" as="geometry" />
        </mxCell>
        <mxCell id="K-4Sev6lLw2hqcVgsduo-56" value="" style="shape=module;jettyWidth=8;jettyHeight=4;rounded=1;strokeColor=#7030a0;strokeWidth=1.5;align=center;verticalAlign=middle;fontFamily=Helvetica;fontSize=12;fontColor=default;fillColor=#f8cbad;movable=1;resizable=1;rotatable=1;deletable=1;editable=1;locked=0;connectable=1;" vertex="1" parent="K-4Sev6lLw2hqcVgsduo-55">
          <mxGeometry x="1" width="20" height="20" relative="1" as="geometry">
            <mxPoint x="-27" y="7" as="offset" />
          </mxGeometry>
        </mxCell>
        <mxCell id="K-4Sev6lLw2hqcVgsduo-57" value="«component&lt;span style=&quot;background-color: initial; font-size: 15px;&quot;&gt;»&lt;/span&gt;&lt;div style=&quot;font-size: 15px;&quot;&gt;&lt;b style=&quot;font-size: 15px;&quot;&gt;S01E01C12&lt;/b&gt;&lt;/div&gt;&lt;div style=&quot;font-size: 15px;&quot;&gt;&lt;b style=&quot;font-size: 15px;&quot;&gt;DMA PER Driver&lt;/b&gt;&lt;/div&gt;" style="html=1;dropTarget=0;whiteSpace=wrap;rounded=1;strokeColor=#7030a0;strokeWidth=1.5;align=center;verticalAlign=middle;fontFamily=Helvetica;fontSize=15;fontColor=default;fillColor=#f8cbad;movable=1;resizable=1;rotatable=1;deletable=1;editable=1;locked=0;connectable=1;" vertex="1" parent="1">
          <mxGeometry x="1130" y="960" width="170" height="60" as="geometry" />
        </mxCell>
        <mxCell id="K-4Sev6lLw2hqcVgsduo-58" value="" style="shape=module;jettyWidth=8;jettyHeight=4;rounded=1;strokeColor=#7030a0;strokeWidth=1.5;align=center;verticalAlign=middle;fontFamily=Helvetica;fontSize=12;fontColor=default;fillColor=#f8cbad;movable=1;resizable=1;rotatable=1;deletable=1;editable=1;locked=0;connectable=1;" vertex="1" parent="K-4Sev6lLw2hqcVgsduo-57">
          <mxGeometry x="1" width="20" height="20" relative="1" as="geometry">
            <mxPoint x="-27" y="7" as="offset" />
          </mxGeometry>
        </mxCell>
        <mxCell id="K-4Sev6lLw2hqcVgsduo-59" value="«component&lt;span style=&quot;background-color: initial; font-size: 15px;&quot;&gt;»&lt;/span&gt;&lt;div style=&quot;font-size: 15px;&quot;&gt;&lt;b style=&quot;font-size: 15px;&quot;&gt;S01E01C13&lt;/b&gt;&lt;/div&gt;&lt;div style=&quot;font-size: 15px;&quot;&gt;&lt;b style=&quot;font-size: 15px;&quot;&gt;eFuse Driver&lt;/b&gt;&lt;/div&gt;" style="html=1;dropTarget=0;whiteSpace=wrap;rounded=1;strokeColor=#7030a0;strokeWidth=1.5;align=center;verticalAlign=middle;fontFamily=Helvetica;fontSize=15;fontColor=default;fillColor=#f8cbad;movable=1;resizable=1;rotatable=1;deletable=1;editable=1;locked=0;connectable=1;" vertex="1" parent="1">
          <mxGeometry x="150" y="860" width="170" height="60" as="geometry" />
        </mxCell>
        <mxCell id="K-4Sev6lLw2hqcVgsduo-60" value="" style="shape=module;jettyWidth=8;jettyHeight=4;rounded=1;strokeColor=#7030a0;strokeWidth=1.5;align=center;verticalAlign=middle;fontFamily=Helvetica;fontSize=12;fontColor=default;fillColor=#f8cbad;movable=1;resizable=1;rotatable=1;deletable=1;editable=1;locked=0;connectable=1;" vertex="1" parent="K-4Sev6lLw2hqcVgsduo-59">
          <mxGeometry x="1" width="20" height="20" relative="1" as="geometry">
            <mxPoint x="-27" y="7" as="offset" />
          </mxGeometry>
        </mxCell>
        <mxCell id="K-4Sev6lLw2hqcVgsduo-61" value="«component&lt;span style=&quot;background-color: initial; font-size: 15px;&quot;&gt;»&lt;/span&gt;&lt;div style=&quot;font-size: 15px;&quot;&gt;&lt;b style=&quot;font-size: 15px;&quot;&gt;S01E01C14&lt;/b&gt;&lt;/div&gt;&lt;div style=&quot;font-size: 15px;&quot;&gt;&lt;b style=&quot;font-size: 15px;&quot;&gt;HSM Driver&lt;/b&gt;&lt;/div&gt;" style="html=1;dropTarget=0;whiteSpace=wrap;rounded=1;strokeColor=#7030a0;strokeWidth=1.5;align=center;verticalAlign=middle;fontFamily=Helvetica;fontSize=15;fontColor=default;fillColor=#f8cbad;movable=1;resizable=1;rotatable=1;deletable=1;editable=1;locked=0;connectable=1;" vertex="1" parent="1">
          <mxGeometry x="150" y="960" width="170" height="60" as="geometry" />
        </mxCell>
        <mxCell id="K-4Sev6lLw2hqcVgsduo-62" value="" style="shape=module;jettyWidth=8;jettyHeight=4;rounded=1;strokeColor=#7030a0;strokeWidth=1.5;align=center;verticalAlign=middle;fontFamily=Helvetica;fontSize=12;fontColor=default;fillColor=#f8cbad;movable=1;resizable=1;rotatable=1;deletable=1;editable=1;locked=0;connectable=1;" vertex="1" parent="K-4Sev6lLw2hqcVgsduo-61">
          <mxGeometry x="1" width="20" height="20" relative="1" as="geometry">
            <mxPoint x="-27" y="7" as="offset" />
          </mxGeometry>
        </mxCell>
        <mxCell id="K-4Sev6lLw2hqcVgsduo-63" value="«component&lt;span style=&quot;background-color: initial; font-size: 15px;&quot;&gt;»&lt;/span&gt;&lt;div style=&quot;font-size: 15px;&quot;&gt;&lt;b style=&quot;font-size: 15px;&quot;&gt;S01E01C15&lt;/b&gt;&lt;/div&gt;&lt;div style=&quot;font-size: 15px;&quot;&gt;&lt;b style=&quot;font-size: 15px;&quot;&gt;GZIP Driver&lt;/b&gt;&lt;/div&gt;" style="html=1;dropTarget=0;whiteSpace=wrap;rounded=1;strokeColor=#7030a0;strokeWidth=1.5;align=center;verticalAlign=middle;fontFamily=Helvetica;fontSize=15;fontColor=default;fillColor=#f8cbad;movable=1;resizable=1;rotatable=1;deletable=1;editable=1;locked=0;connectable=1;" vertex="1" parent="1">
          <mxGeometry x="150" y="1060" width="170" height="60" as="geometry" />
        </mxCell>
        <mxCell id="K-4Sev6lLw2hqcVgsduo-64" value="" style="shape=module;jettyWidth=8;jettyHeight=4;rounded=1;strokeColor=#7030a0;strokeWidth=1.5;align=center;verticalAlign=middle;fontFamily=Helvetica;fontSize=12;fontColor=default;fillColor=#f8cbad;movable=1;resizable=1;rotatable=1;deletable=1;editable=1;locked=0;connectable=1;" vertex="1" parent="K-4Sev6lLw2hqcVgsduo-63">
          <mxGeometry x="1" width="20" height="20" relative="1" as="geometry">
            <mxPoint x="-27" y="7" as="offset" />
          </mxGeometry>
        </mxCell>
        <mxCell id="K-4Sev6lLw2hqcVgsduo-68" value="U-Boot Drivers" style="text;html=1;align=center;verticalAlign=middle;whiteSpace=wrap;rounded=0;fontSize=18;movable=1;resizable=1;rotatable=1;deletable=1;editable=1;locked=0;connectable=1;" vertex="1" parent="1">
          <mxGeometry x="1220" y="750" width="160" height="30" as="geometry" />
        </mxCell>
        <mxCell id="K-4Sev6lLw2hqcVgsduo-70" value="«component&lt;span style=&quot;background-color: initial;&quot;&gt;»&lt;/span&gt;&lt;div&gt;&lt;b&gt;Device Tree&lt;/b&gt;&lt;/div&gt;" style="html=1;dropTarget=0;whiteSpace=wrap;rounded=1;strokeColor=#7030a0;strokeWidth=1.5;align=center;verticalAlign=middle;fontFamily=Helvetica;fontSize=12;fontColor=default;fillColor=#b4c7e7;movable=1;resizable=1;rotatable=1;deletable=1;editable=1;locked=0;connectable=1;" vertex="1" parent="1">
          <mxGeometry x="320" y="760" width="170" height="60" as="geometry" />
        </mxCell>
        <mxCell id="K-4Sev6lLw2hqcVgsduo-71" value="" style="shape=module;jettyWidth=8;jettyHeight=4;rounded=1;strokeColor=#7030a0;strokeWidth=1.5;align=center;verticalAlign=middle;fontFamily=Helvetica;fontSize=12;fontColor=default;fillColor=#b4c7e7;movable=1;resizable=1;rotatable=1;deletable=1;editable=1;locked=0;connectable=1;" vertex="1" parent="K-4Sev6lLw2hqcVgsduo-70">
          <mxGeometry x="1" width="20" height="20" relative="1" as="geometry">
            <mxPoint x="-27" y="7" as="offset" />
          </mxGeometry>
        </mxCell>
        <mxCell id="K-4Sev6lLw2hqcVgsduo-72" value="«component&lt;span style=&quot;background-color: initial; font-size: 15px;&quot;&gt;»&lt;/span&gt;&lt;div style=&quot;font-size: 15px;&quot;&gt;&lt;b style=&quot;font-size: 15px;&quot;&gt;libfdt&lt;/b&gt;&lt;/div&gt;" style="html=1;dropTarget=0;whiteSpace=wrap;rounded=1;strokeColor=#000000;strokeWidth=1.5;align=center;verticalAlign=middle;fontFamily=Helvetica;fontSize=15;fontColor=default;fillColor=#E6E6E6;movable=1;resizable=1;rotatable=1;deletable=1;editable=1;locked=0;connectable=1;" vertex="1" parent="1">
          <mxGeometry x="390" y="640" width="150" height="60" as="geometry" />
        </mxCell>
        <mxCell id="K-4Sev6lLw2hqcVgsduo-73" value="" style="shape=module;jettyWidth=8;jettyHeight=4;rounded=1;strokeColor=#000000;strokeWidth=1.5;align=center;verticalAlign=middle;fontFamily=Helvetica;fontSize=12;fontColor=default;fillColor=default;movable=1;resizable=1;rotatable=1;deletable=1;editable=1;locked=0;connectable=1;" vertex="1" parent="K-4Sev6lLw2hqcVgsduo-72">
          <mxGeometry x="1" width="20" height="20" relative="1" as="geometry">
            <mxPoint x="-27" y="7" as="offset" />
          </mxGeometry>
        </mxCell>
        <mxCell id="K-4Sev6lLw2hqcVgsduo-74" value="«component&lt;span style=&quot;background-color: initial; font-size: 15px;&quot;&gt;»&lt;/span&gt;&lt;div style=&quot;font-size: 15px;&quot;&gt;&lt;b style=&quot;font-size: 15px;&quot;&gt;TFTP&lt;/b&gt;&lt;/div&gt;" style="html=1;dropTarget=0;whiteSpace=wrap;rounded=1;strokeColor=#000000;strokeWidth=1.5;align=center;verticalAlign=middle;fontFamily=Helvetica;fontSize=15;fontColor=default;fillColor=#E6E6E6;movable=1;resizable=1;rotatable=1;deletable=1;editable=1;locked=0;connectable=1;" vertex="1" parent="1">
          <mxGeometry x="560" y="641" width="160" height="60" as="geometry" />
        </mxCell>
        <mxCell id="K-4Sev6lLw2hqcVgsduo-75" value="" style="shape=module;jettyWidth=8;jettyHeight=4;rounded=1;strokeColor=#000000;strokeWidth=1.5;align=center;verticalAlign=middle;fontFamily=Helvetica;fontSize=12;fontColor=default;fillColor=default;movable=1;resizable=1;rotatable=1;deletable=1;editable=1;locked=0;connectable=1;" vertex="1" parent="K-4Sev6lLw2hqcVgsduo-74">
          <mxGeometry x="1" width="20" height="20" relative="1" as="geometry">
            <mxPoint x="-27" y="7" as="offset" />
          </mxGeometry>
        </mxCell>
        <mxCell id="K-4Sev6lLw2hqcVgsduo-76" value="«component&lt;span style=&quot;background-color: initial; font-size: 15px;&quot;&gt;»&lt;/span&gt;&lt;div style=&quot;font-size: 15px;&quot;&gt;&lt;b style=&quot;font-size: 15px;&quot;&gt;MTD Uclass&lt;/b&gt;&lt;/div&gt;" style="html=1;dropTarget=0;whiteSpace=wrap;rounded=1;strokeColor=#000000;strokeWidth=1.5;align=center;verticalAlign=middle;fontFamily=Helvetica;fontSize=15;fontColor=default;fillColor=#E6E6E6;movable=1;resizable=1;rotatable=1;deletable=1;editable=1;locked=0;connectable=1;" vertex="1" parent="1">
          <mxGeometry x="780" y="570" width="160" height="60" as="geometry" />
        </mxCell>
        <mxCell id="K-4Sev6lLw2hqcVgsduo-77" value="" style="shape=module;jettyWidth=8;jettyHeight=4;rounded=1;strokeColor=#000000;strokeWidth=1.5;align=center;verticalAlign=middle;fontFamily=Helvetica;fontSize=12;fontColor=default;fillColor=default;movable=1;resizable=1;rotatable=1;deletable=1;editable=1;locked=0;connectable=1;" vertex="1" parent="K-4Sev6lLw2hqcVgsduo-76">
          <mxGeometry x="1" width="20" height="20" relative="1" as="geometry">
            <mxPoint x="-27" y="7" as="offset" />
          </mxGeometry>
        </mxCell>
        <mxCell id="K-4Sev6lLw2hqcVgsduo-78" value="«component&lt;span style=&quot;background-color: initial; font-size: 15px;&quot;&gt;»&lt;/span&gt;&lt;div style=&quot;font-size: 15px;&quot;&gt;&lt;b style=&quot;font-size: 15px;&quot;&gt;Block Uclass&lt;/b&gt;&lt;/div&gt;" style="html=1;dropTarget=0;whiteSpace=wrap;rounded=1;strokeColor=#000000;strokeWidth=1.5;align=center;verticalAlign=middle;fontFamily=Helvetica;fontSize=15;fontColor=default;fillColor=#E6E6E6;movable=1;resizable=1;rotatable=1;deletable=1;editable=1;locked=0;connectable=1;" vertex="1" parent="1">
          <mxGeometry x="890" y="450" width="160" height="60" as="geometry" />
        </mxCell>
        <mxCell id="K-4Sev6lLw2hqcVgsduo-79" value="" style="shape=module;jettyWidth=8;jettyHeight=4;rounded=1;strokeColor=#000000;strokeWidth=1.5;align=center;verticalAlign=middle;fontFamily=Helvetica;fontSize=12;fontColor=default;fillColor=default;movable=1;resizable=1;rotatable=1;deletable=1;editable=1;locked=0;connectable=1;" vertex="1" parent="K-4Sev6lLw2hqcVgsduo-78">
          <mxGeometry x="1" width="20" height="20" relative="1" as="geometry">
            <mxPoint x="-27" y="7" as="offset" />
          </mxGeometry>
        </mxCell>
        <mxCell id="K-4Sev6lLw2hqcVgsduo-80" value="«component&lt;span style=&quot;background-color: initial; font-size: 15px;&quot;&gt;»&lt;/span&gt;&lt;div style=&quot;font-size: 15px;&quot;&gt;&lt;b style=&quot;font-size: 15px;&quot;&gt;libavb&lt;/b&gt;&lt;/div&gt;" style="html=1;dropTarget=0;whiteSpace=wrap;rounded=1;strokeColor=#000000;strokeWidth=1.5;align=center;verticalAlign=middle;fontFamily=Helvetica;fontSize=15;fontColor=default;fillColor=#E6E6E6;movable=1;resizable=1;rotatable=1;deletable=1;editable=1;locked=0;connectable=1;" vertex="1" parent="1">
          <mxGeometry x="10" y="600" width="160" height="60" as="geometry" />
        </mxCell>
        <mxCell id="K-4Sev6lLw2hqcVgsduo-81" value="" style="shape=module;jettyWidth=8;jettyHeight=4;rounded=1;strokeColor=#000000;strokeWidth=1.5;align=center;verticalAlign=middle;fontFamily=Helvetica;fontSize=12;fontColor=default;fillColor=default;movable=1;resizable=1;rotatable=1;deletable=1;editable=1;locked=0;connectable=1;" vertex="1" parent="K-4Sev6lLw2hqcVgsduo-80">
          <mxGeometry x="1" width="20" height="20" relative="1" as="geometry">
            <mxPoint x="-27" y="7" as="offset" />
          </mxGeometry>
        </mxCell>
        <mxCell id="K-4Sev6lLw2hqcVgsduo-82" value="«component&lt;span style=&quot;background-color: initial; font-size: 15px;&quot;&gt;»&lt;/span&gt;&lt;div style=&quot;font-size: 15px;&quot;&gt;&lt;b style=&quot;font-size: 15px;&quot;&gt;dm-verity support&lt;/b&gt;&lt;/div&gt;" style="html=1;dropTarget=0;whiteSpace=wrap;rounded=1;strokeColor=#000000;strokeWidth=1.5;align=center;verticalAlign=middle;fontFamily=Helvetica;fontSize=15;fontColor=default;fillColor=#E6E6E6;movable=1;resizable=1;rotatable=1;deletable=1;editable=1;locked=0;connectable=1;" vertex="1" parent="1">
          <mxGeometry x="210" y="600" width="170" height="60" as="geometry" />
        </mxCell>
        <mxCell id="K-4Sev6lLw2hqcVgsduo-83" value="" style="shape=module;jettyWidth=8;jettyHeight=4;rounded=1;strokeColor=#000000;strokeWidth=1.5;align=center;verticalAlign=middle;fontFamily=Helvetica;fontSize=12;fontColor=default;fillColor=default;movable=1;resizable=1;rotatable=1;deletable=1;editable=1;locked=0;connectable=1;" vertex="1" parent="K-4Sev6lLw2hqcVgsduo-82">
          <mxGeometry x="1" width="20" height="20" relative="1" as="geometry">
            <mxPoint x="-27" y="7" as="offset" />
          </mxGeometry>
        </mxCell>
        <mxCell id="K-4Sev6lLw2hqcVgsduo-84" value="«component&lt;span style=&quot;background-color: initial; font-size: 15px;&quot;&gt;»&lt;/span&gt;&lt;div style=&quot;font-size: 15px;&quot;&gt;&lt;b style=&quot;font-size: 15px;&quot;&gt;AB support&lt;/b&gt;&lt;/div&gt;" style="html=1;dropTarget=0;whiteSpace=wrap;rounded=1;strokeColor=#000000;strokeWidth=1.5;align=center;verticalAlign=middle;fontFamily=Helvetica;fontSize=15;fontColor=default;fillColor=#E6E6E6;movable=1;resizable=1;rotatable=1;deletable=1;editable=1;locked=0;connectable=1;" vertex="1" parent="1">
          <mxGeometry x="280" y="440" width="160" height="60" as="geometry" />
        </mxCell>
        <mxCell id="K-4Sev6lLw2hqcVgsduo-85" value="" style="shape=module;jettyWidth=8;jettyHeight=4;rounded=1;strokeColor=#000000;strokeWidth=1.5;align=center;verticalAlign=middle;fontFamily=Helvetica;fontSize=12;fontColor=default;fillColor=default;movable=1;resizable=1;rotatable=1;deletable=1;editable=1;locked=0;connectable=1;" vertex="1" parent="K-4Sev6lLw2hqcVgsduo-84">
          <mxGeometry x="1" width="20" height="20" relative="1" as="geometry">
            <mxPoint x="-27" y="7" as="offset" />
          </mxGeometry>
        </mxCell>
        <mxCell id="K-4Sev6lLw2hqcVgsduo-86" value="«component&lt;span style=&quot;background-color: initial; font-size: 15px;&quot;&gt;»&lt;/span&gt;&lt;div style=&quot;font-size: 15px;&quot;&gt;&lt;b style=&quot;font-size: 15px;&quot;&gt;Fastboot&lt;/b&gt;&lt;/div&gt;" style="html=1;dropTarget=0;whiteSpace=wrap;rounded=1;strokeColor=#000000;strokeWidth=1.5;align=center;verticalAlign=middle;fontFamily=Helvetica;fontSize=15;fontColor=default;fillColor=#E6E6E6;movable=1;resizable=1;rotatable=1;deletable=1;editable=1;locked=0;connectable=1;" vertex="1" parent="1">
          <mxGeometry x="600" y="440" width="150" height="60" as="geometry" />
        </mxCell>
        <mxCell id="K-4Sev6lLw2hqcVgsduo-87" value="" style="shape=module;jettyWidth=8;jettyHeight=4;rounded=1;strokeColor=#000000;strokeWidth=1.5;align=center;verticalAlign=middle;fontFamily=Helvetica;fontSize=12;fontColor=default;fillColor=default;movable=1;resizable=1;rotatable=1;deletable=1;editable=1;locked=0;connectable=1;" vertex="1" parent="K-4Sev6lLw2hqcVgsduo-86">
          <mxGeometry x="1" width="20" height="20" relative="1" as="geometry">
            <mxPoint x="-27" y="7" as="offset" />
          </mxGeometry>
        </mxCell>
        <mxCell id="K-4Sev6lLw2hqcVgsduo-88" value="«component&lt;span style=&quot;background-color: initial; font-size: 15px;&quot;&gt;»&lt;/span&gt;&lt;div style=&quot;font-size: 15px;&quot;&gt;&lt;b style=&quot;font-size: 15px;&quot;&gt;GPT&lt;/b&gt;&lt;/div&gt;" style="html=1;dropTarget=0;whiteSpace=wrap;rounded=1;strokeColor=#000000;strokeWidth=1.5;align=center;verticalAlign=middle;fontFamily=Helvetica;fontSize=15;fontColor=default;fillColor=#E6E6E6;movable=1;resizable=1;rotatable=1;deletable=1;editable=1;locked=0;connectable=1;" vertex="1" parent="1">
          <mxGeometry x="1160" y="600" width="150" height="60" as="geometry" />
        </mxCell>
        <mxCell id="K-4Sev6lLw2hqcVgsduo-89" value="" style="shape=module;jettyWidth=8;jettyHeight=4;rounded=1;strokeColor=#000000;strokeWidth=1.5;align=center;verticalAlign=middle;fontFamily=Helvetica;fontSize=12;fontColor=default;fillColor=default;movable=1;resizable=1;rotatable=1;deletable=1;editable=1;locked=0;connectable=1;" vertex="1" parent="K-4Sev6lLw2hqcVgsduo-88">
          <mxGeometry x="1" width="20" height="20" relative="1" as="geometry">
            <mxPoint x="-27" y="7" as="offset" />
          </mxGeometry>
        </mxCell>
        <mxCell id="K-4Sev6lLw2hqcVgsduo-90" value="«component&lt;span style=&quot;background-color: initial; font-size: 15px;&quot;&gt;»&lt;/span&gt;&lt;div style=&quot;font-size: 15px;&quot;&gt;&lt;b style=&quot;font-size: 15px;&quot;&gt;EXT4&lt;/b&gt;&lt;/div&gt;" style="html=1;dropTarget=0;whiteSpace=wrap;rounded=1;strokeColor=#000000;strokeWidth=1.5;align=center;verticalAlign=middle;fontFamily=Helvetica;fontSize=15;fontColor=default;fillColor=#E6E6E6;movable=1;resizable=1;rotatable=1;deletable=1;editable=1;locked=0;connectable=1;" vertex="1" parent="1">
          <mxGeometry x="1160" y="390" width="150" height="60" as="geometry" />
        </mxCell>
        <mxCell id="K-4Sev6lLw2hqcVgsduo-91" value="" style="shape=module;jettyWidth=8;jettyHeight=4;rounded=1;strokeColor=#000000;strokeWidth=1.5;align=center;verticalAlign=middle;fontFamily=Helvetica;fontSize=12;fontColor=default;fillColor=default;movable=1;resizable=1;rotatable=1;deletable=1;editable=1;locked=0;connectable=1;" vertex="1" parent="K-4Sev6lLw2hqcVgsduo-90">
          <mxGeometry x="1" width="20" height="20" relative="1" as="geometry">
            <mxPoint x="-27" y="7" as="offset" />
          </mxGeometry>
        </mxCell>
        <mxCell id="K-4Sev6lLw2hqcVgsduo-92" value="«component&lt;span style=&quot;background-color: initial; font-size: 15px;&quot;&gt;»&lt;/span&gt;&lt;div style=&quot;font-size: 15px;&quot;&gt;&lt;b style=&quot;font-size: 15px;&quot;&gt;FAT32&lt;/b&gt;&lt;/div&gt;" style="html=1;dropTarget=0;whiteSpace=wrap;rounded=1;strokeColor=#000000;strokeWidth=1.5;align=center;verticalAlign=middle;fontFamily=Helvetica;fontSize=15;fontColor=default;fillColor=#E6E6E6;movable=1;resizable=1;rotatable=1;deletable=1;editable=1;locked=0;connectable=1;" vertex="1" parent="1">
          <mxGeometry x="1160" y="490" width="150" height="60" as="geometry" />
        </mxCell>
        <mxCell id="K-4Sev6lLw2hqcVgsduo-93" value="" style="shape=module;jettyWidth=8;jettyHeight=4;rounded=1;strokeColor=#000000;strokeWidth=1.5;align=center;verticalAlign=middle;fontFamily=Helvetica;fontSize=12;fontColor=default;fillColor=default;movable=1;resizable=1;rotatable=1;deletable=1;editable=1;locked=0;connectable=1;" vertex="1" parent="K-4Sev6lLw2hqcVgsduo-92">
          <mxGeometry x="1" width="20" height="20" relative="1" as="geometry">
            <mxPoint x="-27" y="7" as="offset" />
          </mxGeometry>
        </mxCell>
        <mxCell id="K-4Sev6lLw2hqcVgsduo-95" value="" style="endArrow=classic;html=1;rounded=0;exitX=0.5;exitY=1;exitDx=0;exitDy=0;entryX=0.5;entryY=0;entryDx=0;entryDy=0;strokeWidth=2;movable=1;resizable=1;rotatable=1;deletable=1;editable=1;locked=0;connectable=1;" edge="1" parent="1" source="K-4Sev6lLw2hqcVgsduo-72" target="K-4Sev6lLw2hqcVgsduo-70">
          <mxGeometry width="50" height="50" relative="1" as="geometry">
            <mxPoint x="560" y="790" as="sourcePoint" />
            <mxPoint x="610" y="740" as="targetPoint" />
            <Array as="points">
              <mxPoint x="465" y="740" />
              <mxPoint x="405" y="740" />
            </Array>
          </mxGeometry>
        </mxCell>
        <mxCell id="K-4Sev6lLw2hqcVgsduo-96" value="" style="endArrow=classic;html=1;rounded=0;exitX=0.5;exitY=1;exitDx=0;exitDy=0;entryX=0.5;entryY=0;entryDx=0;entryDy=0;strokeWidth=2;movable=1;resizable=1;rotatable=1;deletable=1;editable=1;locked=0;connectable=1;" edge="1" parent="1" source="K-4Sev6lLw2hqcVgsduo-74" target="K-4Sev6lLw2hqcVgsduo-51">
          <mxGeometry width="50" height="50" relative="1" as="geometry">
            <mxPoint x="620" y="730" as="sourcePoint" />
            <mxPoint x="850" y="750" as="targetPoint" />
            <Array as="points">
              <mxPoint x="640" y="840" />
              <mxPoint x="475" y="840" />
            </Array>
          </mxGeometry>
        </mxCell>
        <mxCell id="K-4Sev6lLw2hqcVgsduo-103" value="«component&lt;span style=&quot;background-color: initial; font-size: 15px;&quot;&gt;»&lt;/span&gt;&lt;div style=&quot;font-size: 15px;&quot;&gt;&lt;b style=&quot;font-size: 15px;&quot;&gt;S01E01C22&lt;/b&gt;&lt;/div&gt;&lt;div style=&quot;font-size: 15px;&quot;&gt;&lt;b style=&quot;font-size: 15px;&quot;&gt;Bootup Config&lt;/b&gt;&lt;/div&gt;" style="html=1;dropTarget=0;whiteSpace=wrap;rounded=1;strokeColor=#7030a0;strokeWidth=1.5;align=center;verticalAlign=middle;fontFamily=Helvetica;fontSize=15;fontColor=default;fillColor=#f8cbad;movable=1;resizable=1;rotatable=1;deletable=1;editable=1;locked=0;connectable=1;" vertex="1" parent="1">
          <mxGeometry x="110" y="150" width="170" height="60" as="geometry" />
        </mxCell>
        <mxCell id="K-4Sev6lLw2hqcVgsduo-104" value="" style="shape=module;jettyWidth=8;jettyHeight=4;rounded=1;strokeColor=#7030a0;strokeWidth=1.5;align=center;verticalAlign=middle;fontFamily=Helvetica;fontSize=12;fontColor=default;fillColor=#f8cbad;movable=1;resizable=1;rotatable=1;deletable=1;editable=1;locked=0;connectable=1;" vertex="1" parent="K-4Sev6lLw2hqcVgsduo-103">
          <mxGeometry x="1" width="20" height="20" relative="1" as="geometry">
            <mxPoint x="-27" y="7" as="offset" />
          </mxGeometry>
        </mxCell>
        <mxCell id="K-4Sev6lLw2hqcVgsduo-107" value="«component&lt;span style=&quot;background-color: initial; font-size: 15px;&quot;&gt;»&lt;/span&gt;&lt;div style=&quot;font-size: 15px;&quot;&gt;&lt;b style=&quot;font-size: 15px;&quot;&gt;S01E01C21&lt;/b&gt;&lt;/div&gt;&lt;div style=&quot;font-size: 15px;&quot;&gt;&lt;b style=&quot;font-size: 15px;&quot;&gt;AVB&lt;/b&gt;&lt;/div&gt;" style="html=1;dropTarget=0;whiteSpace=wrap;rounded=1;strokeColor=#7030a0;strokeWidth=1.5;align=center;verticalAlign=middle;fontFamily=Helvetica;fontSize=15;fontColor=default;fillColor=#f8cbad;movable=1;resizable=1;rotatable=1;deletable=1;editable=1;locked=0;connectable=1;" vertex="1" parent="1">
          <mxGeometry x="100" y="283" width="170" height="60" as="geometry" />
        </mxCell>
        <mxCell id="K-4Sev6lLw2hqcVgsduo-108" value="" style="shape=module;jettyWidth=8;jettyHeight=4;rounded=1;strokeColor=#7030a0;strokeWidth=1.5;align=center;verticalAlign=middle;fontFamily=Helvetica;fontSize=12;fontColor=default;fillColor=#f8cbad;movable=1;resizable=1;rotatable=1;deletable=1;editable=1;locked=0;connectable=1;" vertex="1" parent="K-4Sev6lLw2hqcVgsduo-107">
          <mxGeometry x="1" width="20" height="20" relative="1" as="geometry">
            <mxPoint x="-27" y="7" as="offset" />
          </mxGeometry>
        </mxCell>
        <mxCell id="K-4Sev6lLw2hqcVgsduo-109" value="«component&lt;span style=&quot;background-color: initial; font-size: 15px;&quot;&gt;»&lt;/span&gt;&lt;div style=&quot;font-size: 15px;&quot;&gt;&lt;b style=&quot;font-size: 15px;&quot;&gt;S01E01C19&lt;/b&gt;&lt;/div&gt;&lt;div style=&quot;font-size: 15px;&quot;&gt;&lt;b style=&quot;font-size: 15px;&quot;&gt;Update Image&lt;/b&gt;&lt;/div&gt;" style="html=1;dropTarget=0;whiteSpace=wrap;rounded=1;strokeColor=#7030a0;strokeWidth=1.5;align=center;verticalAlign=middle;fontFamily=Helvetica;fontSize=15;fontColor=default;fillColor=#f8cbad;movable=1;resizable=1;rotatable=1;deletable=1;editable=1;locked=0;connectable=1;" vertex="1" parent="1">
          <mxGeometry x="600" y="193" width="170" height="60" as="geometry" />
        </mxCell>
        <mxCell id="K-4Sev6lLw2hqcVgsduo-110" value="" style="shape=module;jettyWidth=8;jettyHeight=4;rounded=1;strokeColor=#7030a0;strokeWidth=1.5;align=center;verticalAlign=middle;fontFamily=Helvetica;fontSize=12;fontColor=default;fillColor=#f8cbad;movable=1;resizable=1;rotatable=1;deletable=1;editable=1;locked=0;connectable=1;" vertex="1" parent="K-4Sev6lLw2hqcVgsduo-109">
          <mxGeometry x="1" width="20" height="20" relative="1" as="geometry">
            <mxPoint x="-27" y="7" as="offset" />
          </mxGeometry>
        </mxCell>
        <mxCell id="K-4Sev6lLw2hqcVgsduo-111" value="«component&lt;span style=&quot;background-color: initial; font-size: 15px;&quot;&gt;»&lt;/span&gt;&lt;div style=&quot;font-size: 15px;&quot;&gt;&lt;b style=&quot;font-size: 15px;&quot;&gt;S01E01C18&lt;/b&gt;&lt;/div&gt;&lt;div style=&quot;font-size: 15px;&quot;&gt;&lt;b style=&quot;font-size: 15px;&quot;&gt;Fastboot Backend&lt;/b&gt;&lt;/div&gt;" style="html=1;dropTarget=0;whiteSpace=wrap;rounded=1;strokeColor=#7030a0;strokeWidth=1.5;align=center;verticalAlign=middle;fontFamily=Helvetica;fontSize=15;fontColor=default;fillColor=#f8cbad;movable=1;resizable=1;rotatable=1;deletable=1;editable=1;locked=0;connectable=1;" vertex="1" parent="1">
          <mxGeometry x="680" y="283" width="170" height="60" as="geometry" />
        </mxCell>
        <mxCell id="K-4Sev6lLw2hqcVgsduo-112" value="" style="shape=module;jettyWidth=8;jettyHeight=4;rounded=1;strokeColor=#7030a0;strokeWidth=1.5;align=center;verticalAlign=middle;fontFamily=Helvetica;fontSize=12;fontColor=default;fillColor=#f8cbad;movable=1;resizable=1;rotatable=1;deletable=1;editable=1;locked=0;connectable=1;" vertex="1" parent="K-4Sev6lLw2hqcVgsduo-111">
          <mxGeometry x="1" width="20" height="20" relative="1" as="geometry">
            <mxPoint x="-27" y="7" as="offset" />
          </mxGeometry>
        </mxCell>
        <mxCell id="K-4Sev6lLw2hqcVgsduo-113" value="«component&lt;span style=&quot;background-color: initial; font-size: 15px;&quot;&gt;»&lt;/span&gt;&lt;div style=&quot;font-size: 15px;&quot;&gt;&lt;b style=&quot;font-size: 15px;&quot;&gt;S01E01C17&lt;/b&gt;&lt;/div&gt;&lt;div style=&quot;font-size: 15px;&quot;&gt;&lt;b style=&quot;font-size: 15px;&quot;&gt;Load Image&lt;/b&gt;&lt;/div&gt;" style="html=1;dropTarget=0;whiteSpace=wrap;rounded=1;strokeColor=#7030a0;strokeWidth=1.5;align=center;verticalAlign=middle;fontFamily=Helvetica;fontSize=15;fontColor=default;fillColor=#f8cbad;movable=1;resizable=1;rotatable=1;deletable=1;editable=1;locked=0;connectable=1;" vertex="1" parent="1">
          <mxGeometry x="1130" y="240" width="170" height="60" as="geometry" />
        </mxCell>
        <mxCell id="K-4Sev6lLw2hqcVgsduo-114" value="" style="shape=module;jettyWidth=8;jettyHeight=4;rounded=1;strokeColor=#7030a0;strokeWidth=1.5;align=center;verticalAlign=middle;fontFamily=Helvetica;fontSize=12;fontColor=default;fillColor=#f8cbad;movable=1;resizable=1;rotatable=1;deletable=1;editable=1;locked=0;connectable=1;" vertex="1" parent="K-4Sev6lLw2hqcVgsduo-113">
          <mxGeometry x="1" width="20" height="20" relative="1" as="geometry">
            <mxPoint x="-27" y="7" as="offset" />
          </mxGeometry>
        </mxCell>
        <mxCell id="K-4Sev6lLw2hqcVgsduo-121" value="" style="endArrow=classic;html=1;rounded=0;exitX=0.25;exitY=1;exitDx=0;exitDy=0;entryX=0.5;entryY=0;entryDx=0;entryDy=0;strokeWidth=2;movable=1;resizable=1;rotatable=1;deletable=1;editable=1;locked=0;connectable=1;" edge="1" parent="1" source="K-4Sev6lLw2hqcVgsduo-107" target="K-4Sev6lLw2hqcVgsduo-80">
          <mxGeometry width="50" height="50" relative="1" as="geometry">
            <mxPoint x="240" y="530" as="sourcePoint" />
            <mxPoint x="560" y="490" as="targetPoint" />
            <Array as="points">
              <mxPoint x="143" y="550" />
              <mxPoint x="90" y="550" />
            </Array>
          </mxGeometry>
        </mxCell>
        <mxCell id="K-4Sev6lLw2hqcVgsduo-122" value="" style="endArrow=classic;html=1;rounded=0;exitX=0.75;exitY=1;exitDx=0;exitDy=0;entryX=0.5;entryY=0;entryDx=0;entryDy=0;strokeWidth=2;movable=1;resizable=1;rotatable=1;deletable=1;editable=1;locked=0;connectable=1;" edge="1" parent="1" source="K-4Sev6lLw2hqcVgsduo-107" target="K-4Sev6lLw2hqcVgsduo-82">
          <mxGeometry width="50" height="50" relative="1" as="geometry">
            <mxPoint x="250" y="560" as="sourcePoint" />
            <mxPoint x="300" y="510" as="targetPoint" />
            <Array as="points">
              <mxPoint x="228" y="550" />
              <mxPoint x="295" y="550" />
            </Array>
          </mxGeometry>
        </mxCell>
        <mxCell id="K-4Sev6lLw2hqcVgsduo-123" value="«component&lt;span style=&quot;background-color: initial; font-size: 15px;&quot;&gt;»&lt;/span&gt;&lt;div style=&quot;font-size: 15px;&quot;&gt;&lt;b style=&quot;font-size: 15px;&quot;&gt;S01E01C20&lt;/b&gt;&lt;/div&gt;&lt;div style=&quot;font-size: 15px;&quot;&gt;&lt;b style=&quot;font-size: 15px;&quot;&gt;Execute Image&lt;/b&gt;&lt;/div&gt;" style="html=1;dropTarget=0;whiteSpace=wrap;rounded=1;strokeColor=#7030a0;strokeWidth=1.5;align=center;verticalAlign=middle;fontFamily=Helvetica;fontSize=15;fontColor=default;fillColor=#f8cbad;movable=1;resizable=1;rotatable=1;deletable=1;editable=1;locked=0;connectable=1;" vertex="1" parent="1">
          <mxGeometry x="360" y="150" width="170" height="60" as="geometry" />
        </mxCell>
        <mxCell id="K-4Sev6lLw2hqcVgsduo-124" value="" style="shape=module;jettyWidth=8;jettyHeight=4;rounded=1;strokeColor=#7030a0;strokeWidth=1.5;align=center;verticalAlign=middle;fontFamily=Helvetica;fontSize=12;fontColor=default;fillColor=#f8cbad;movable=1;resizable=1;rotatable=1;deletable=1;editable=1;locked=0;connectable=1;" vertex="1" parent="K-4Sev6lLw2hqcVgsduo-123">
          <mxGeometry x="1" width="20" height="20" relative="1" as="geometry">
            <mxPoint x="-27" y="7" as="offset" />
          </mxGeometry>
        </mxCell>
        <mxCell id="K-4Sev6lLw2hqcVgsduo-131" value="" style="endArrow=classic;html=1;rounded=0;exitX=0.5;exitY=1;exitDx=0;exitDy=0;entryX=0.5;entryY=0;entryDx=0;entryDy=0;strokeWidth=2;movable=1;resizable=1;rotatable=1;deletable=1;editable=1;locked=0;connectable=1;" edge="1" parent="1" source="K-4Sev6lLw2hqcVgsduo-78" target="K-4Sev6lLw2hqcVgsduo-53">
          <mxGeometry width="50" height="50" relative="1" as="geometry">
            <mxPoint x="920" y="560" as="sourcePoint" />
            <mxPoint x="970" y="510" as="targetPoint" />
            <Array as="points">
              <mxPoint x="970" y="800" />
              <mxPoint x="1215" y="800" />
            </Array>
          </mxGeometry>
        </mxCell>
        <mxCell id="K-4Sev6lLw2hqcVgsduo-132" value="" style="endArrow=classic;html=1;rounded=0;exitX=0;exitY=0.5;exitDx=0;exitDy=0;entryX=0.75;entryY=1;entryDx=0;entryDy=0;strokeWidth=2;movable=1;resizable=1;rotatable=1;deletable=1;editable=1;locked=0;connectable=1;" edge="1" parent="1" source="K-4Sev6lLw2hqcVgsduo-88" target="K-4Sev6lLw2hqcVgsduo-78">
          <mxGeometry width="50" height="50" relative="1" as="geometry">
            <mxPoint x="920" y="560" as="sourcePoint" />
            <mxPoint x="970" y="510" as="targetPoint" />
            <Array as="points">
              <mxPoint x="1010" y="630" />
            </Array>
          </mxGeometry>
        </mxCell>
        <mxCell id="K-4Sev6lLw2hqcVgsduo-133" value="" style="endArrow=classic;html=1;rounded=0;exitX=0;exitY=0.5;exitDx=0;exitDy=0;entryX=1;entryY=0.75;entryDx=0;entryDy=0;strokeWidth=2;movable=1;resizable=1;rotatable=1;deletable=1;editable=1;locked=0;connectable=1;" edge="1" parent="1" source="K-4Sev6lLw2hqcVgsduo-92" target="K-4Sev6lLw2hqcVgsduo-78">
          <mxGeometry width="50" height="50" relative="1" as="geometry">
            <mxPoint x="920" y="560" as="sourcePoint" />
            <mxPoint x="970" y="510" as="targetPoint" />
            <Array as="points">
              <mxPoint x="1100" y="520" />
              <mxPoint x="1100" y="495" />
            </Array>
          </mxGeometry>
        </mxCell>
        <mxCell id="K-4Sev6lLw2hqcVgsduo-135" value="" style="endArrow=classic;html=1;rounded=0;exitX=0;exitY=0.5;exitDx=0;exitDy=0;entryX=1;entryY=0.25;entryDx=0;entryDy=0;strokeWidth=2;movable=1;resizable=1;rotatable=1;deletable=1;editable=1;locked=0;connectable=1;" edge="1" parent="1" source="K-4Sev6lLw2hqcVgsduo-90" target="K-4Sev6lLw2hqcVgsduo-78">
          <mxGeometry width="50" height="50" relative="1" as="geometry">
            <mxPoint x="920" y="560" as="sourcePoint" />
            <mxPoint x="1120" y="480" as="targetPoint" />
            <Array as="points">
              <mxPoint x="1100" y="420" />
              <mxPoint x="1100" y="465" />
            </Array>
          </mxGeometry>
        </mxCell>
        <mxCell id="K-4Sev6lLw2hqcVgsduo-136" value="" style="endArrow=classic;html=1;rounded=0;exitX=0;exitY=0.5;exitDx=0;exitDy=0;entryX=0.5;entryY=0;entryDx=0;entryDy=0;strokeWidth=2;movable=1;resizable=1;rotatable=1;deletable=1;editable=1;locked=0;connectable=1;" edge="1" parent="1" source="K-4Sev6lLw2hqcVgsduo-113" target="K-4Sev6lLw2hqcVgsduo-78">
          <mxGeometry width="50" height="50" relative="1" as="geometry">
            <mxPoint x="920" y="560" as="sourcePoint" />
            <mxPoint x="970" y="510" as="targetPoint" />
            <Array as="points">
              <mxPoint x="970" y="270" />
            </Array>
          </mxGeometry>
        </mxCell>
        <mxCell id="K-4Sev6lLw2hqcVgsduo-137" value="" style="endArrow=classic;html=1;rounded=0;exitX=0.75;exitY=1;exitDx=0;exitDy=0;entryX=0;entryY=0.25;entryDx=0;entryDy=0;strokeWidth=2;movable=1;resizable=1;rotatable=1;deletable=1;editable=1;locked=0;connectable=1;" edge="1" parent="1" source="K-4Sev6lLw2hqcVgsduo-111" target="K-4Sev6lLw2hqcVgsduo-78">
          <mxGeometry width="50" height="50" relative="1" as="geometry">
            <mxPoint x="920" y="560" as="sourcePoint" />
            <mxPoint x="970" y="510" as="targetPoint" />
            <Array as="points">
              <mxPoint x="808" y="465" />
            </Array>
          </mxGeometry>
        </mxCell>
        <mxCell id="K-4Sev6lLw2hqcVgsduo-139" value="" style="endArrow=classic;html=1;rounded=0;exitX=0.5;exitY=1;exitDx=0;exitDy=0;entryX=0.5;entryY=0;entryDx=0;entryDy=0;strokeWidth=2;movable=1;resizable=1;rotatable=1;deletable=1;editable=1;locked=0;connectable=1;" edge="1" parent="1" source="K-4Sev6lLw2hqcVgsduo-111" target="K-4Sev6lLw2hqcVgsduo-76">
          <mxGeometry width="50" height="50" relative="1" as="geometry">
            <mxPoint x="920" y="560" as="sourcePoint" />
            <mxPoint x="970" y="510" as="targetPoint" />
            <Array as="points">
              <mxPoint x="765" y="540" />
              <mxPoint x="860" y="540" />
            </Array>
          </mxGeometry>
        </mxCell>
        <mxCell id="K-4Sev6lLw2hqcVgsduo-140" value="" style="endArrow=classic;html=1;rounded=0;exitX=0.5;exitY=1;exitDx=0;exitDy=0;entryX=0.5;entryY=0;entryDx=0;entryDy=0;strokeWidth=2;movable=1;resizable=1;rotatable=1;deletable=1;editable=1;locked=0;connectable=1;" edge="1" parent="1" source="K-4Sev6lLw2hqcVgsduo-123" target="K-4Sev6lLw2hqcVgsduo-84">
          <mxGeometry width="50" height="50" relative="1" as="geometry">
            <mxPoint x="700" y="560" as="sourcePoint" />
            <mxPoint x="750" y="510" as="targetPoint" />
            <Array as="points">
              <mxPoint x="445" y="340" />
              <mxPoint x="360" y="340" />
            </Array>
          </mxGeometry>
        </mxCell>
        <mxCell id="K-4Sev6lLw2hqcVgsduo-141" value="" style="endArrow=classic;html=1;rounded=0;exitX=0.75;exitY=1;exitDx=0;exitDy=0;strokeWidth=2;movable=1;resizable=1;rotatable=1;deletable=1;editable=1;locked=0;connectable=1;" edge="1" parent="1" source="K-4Sev6lLw2hqcVgsduo-123" target="K-4Sev6lLw2hqcVgsduo-72">
          <mxGeometry width="50" height="50" relative="1" as="geometry">
            <mxPoint x="700" y="560" as="sourcePoint" />
            <mxPoint x="750" y="510" as="targetPoint" />
            <Array as="points">
              <mxPoint x="488" y="520" />
              <mxPoint x="465" y="520" />
            </Array>
          </mxGeometry>
        </mxCell>
        <mxCell id="K-4Sev6lLw2hqcVgsduo-142" value="" style="endArrow=classic;html=1;rounded=0;exitX=0.75;exitY=1;exitDx=0;exitDy=0;entryX=0.5;entryY=0;entryDx=0;entryDy=0;strokeWidth=2;movable=1;resizable=1;rotatable=1;deletable=1;editable=1;locked=0;connectable=1;" edge="1" parent="1" source="K-4Sev6lLw2hqcVgsduo-123" target="K-4Sev6lLw2hqcVgsduo-74">
          <mxGeometry width="50" height="50" relative="1" as="geometry">
            <mxPoint x="700" y="560" as="sourcePoint" />
            <mxPoint x="750" y="510" as="targetPoint" />
            <Array as="points">
              <mxPoint x="488" y="520" />
              <mxPoint x="640" y="520" />
            </Array>
          </mxGeometry>
        </mxCell>
        <mxCell id="K-4Sev6lLw2hqcVgsduo-143" value="" style="endArrow=classic;html=1;rounded=0;exitX=0.25;exitY=1;exitDx=0;exitDy=0;entryX=0.289;entryY=-0.041;entryDx=0;entryDy=0;strokeWidth=2;movable=1;resizable=1;rotatable=1;deletable=1;editable=1;locked=0;connectable=1;entryPerimeter=0;" edge="1" parent="1" source="K-4Sev6lLw2hqcVgsduo-109" target="K-4Sev6lLw2hqcVgsduo-86">
          <mxGeometry width="50" height="50" relative="1" as="geometry">
            <mxPoint x="700" y="560" as="sourcePoint" />
            <mxPoint x="750" y="510" as="targetPoint" />
            <Array as="points">
              <mxPoint x="643" y="370" />
              <mxPoint x="643" y="400" />
            </Array>
          </mxGeometry>
        </mxCell>
        <mxCell id="K-4Sev6lLw2hqcVgsduo-144" value="" style="endArrow=classic;html=1;rounded=0;exitX=0.5;exitY=0;exitDx=0;exitDy=0;entryX=0.25;entryY=1;entryDx=0;entryDy=0;strokeWidth=2;movable=1;resizable=1;rotatable=1;deletable=1;editable=1;locked=0;connectable=1;" edge="1" parent="1" source="K-4Sev6lLw2hqcVgsduo-86" target="K-4Sev6lLw2hqcVgsduo-111">
          <mxGeometry width="50" height="50" relative="1" as="geometry">
            <mxPoint x="700" y="560" as="sourcePoint" />
            <mxPoint x="750" y="510" as="targetPoint" />
            <Array as="points">
              <mxPoint x="675" y="400" />
              <mxPoint x="723" y="400" />
            </Array>
          </mxGeometry>
        </mxCell>
        <mxCell id="K-4Sev6lLw2hqcVgsduo-145" value="" style="endArrow=classic;html=1;rounded=0;exitX=1;exitY=0.5;exitDx=0;exitDy=0;entryX=0.5;entryY=0;entryDx=0;entryDy=0;strokeWidth=2;movable=1;resizable=1;rotatable=1;deletable=1;editable=1;locked=0;connectable=1;" edge="1" parent="1" source="K-4Sev6lLw2hqcVgsduo-123" target="K-4Sev6lLw2hqcVgsduo-113">
          <mxGeometry width="50" height="50" relative="1" as="geometry">
            <mxPoint x="700" y="560" as="sourcePoint" />
            <mxPoint x="750" y="510" as="targetPoint" />
            <Array as="points">
              <mxPoint x="1215" y="180" />
            </Array>
          </mxGeometry>
        </mxCell>
        <mxCell id="K-4Sev6lLw2hqcVgsduo-146" value="" style="endArrow=classic;html=1;rounded=0;exitX=0.25;exitY=1;exitDx=0;exitDy=0;entryX=1;entryY=0.5;entryDx=0;entryDy=0;strokeWidth=2;movable=1;resizable=1;rotatable=1;deletable=1;editable=1;locked=0;connectable=1;" edge="1" parent="1" source="K-4Sev6lLw2hqcVgsduo-123" target="K-4Sev6lLw2hqcVgsduo-107">
          <mxGeometry width="50" height="50" relative="1" as="geometry">
            <mxPoint x="700" y="560" as="sourcePoint" />
            <mxPoint x="750" y="510" as="targetPoint" />
            <Array as="points">
              <mxPoint x="403" y="270" />
              <mxPoint x="403" y="313" />
            </Array>
          </mxGeometry>
        </mxCell>
        <mxCell id="K-4Sev6lLw2hqcVgsduo-147" value="" style="endArrow=classic;html=1;rounded=0;exitX=0.5;exitY=1;exitDx=0;exitDy=0;entryX=0.5;entryY=0;entryDx=0;entryDy=0;strokeWidth=2;movable=1;resizable=1;rotatable=1;deletable=1;editable=1;locked=0;connectable=1;" edge="1" parent="1" source="K-4Sev6lLw2hqcVgsduo-76" target="K-4Sev6lLw2hqcVgsduo-55">
          <mxGeometry width="50" height="50" relative="1" as="geometry">
            <mxPoint x="790" y="780" as="sourcePoint" />
            <mxPoint x="840" y="730" as="targetPoint" />
            <Array as="points">
              <mxPoint x="860" y="840" />
              <mxPoint x="725" y="840" />
            </Array>
          </mxGeometry>
        </mxCell>
        <mxCell id="K-4Sev6lLw2hqcVgsduo-148" value="" style="endArrow=classic;html=1;rounded=0;exitX=0.75;exitY=1;exitDx=0;exitDy=0;entryX=0.5;entryY=0;entryDx=0;entryDy=0;strokeWidth=2;movable=1;resizable=1;rotatable=1;deletable=1;editable=1;locked=0;connectable=1;" edge="1" parent="1" source="K-4Sev6lLw2hqcVgsduo-76" target="K-4Sev6lLw2hqcVgsduo-49">
          <mxGeometry width="50" height="50" relative="1" as="geometry">
            <mxPoint x="790" y="780" as="sourcePoint" />
            <mxPoint x="840" y="730" as="targetPoint" />
            <Array as="points">
              <mxPoint x="900" y="830" />
              <mxPoint x="962" y="830" />
            </Array>
          </mxGeometry>
        </mxCell>
        <mxCell id="K-4Sev6lLw2hqcVgsduo-153" value="" style="shape=flexArrow;endArrow=classic;startArrow=classic;html=1;rounded=0;entryX=0.5;entryY=1;entryDx=0;entryDy=0;movable=1;resizable=1;rotatable=1;deletable=1;editable=1;locked=0;connectable=1;" edge="1" parent="1" source="K-4Sev6lLw2hqcVgsduo-31" target="K-4Sev6lLw2hqcVgsduo-67">
          <mxGeometry width="100" height="100" relative="1" as="geometry">
            <mxPoint x="620" y="1450" as="sourcePoint" />
            <mxPoint x="720" y="1350" as="targetPoint" />
          </mxGeometry>
        </mxCell>
        <mxCell id="K-4Sev6lLw2hqcVgsduo-154" value="U-Boot Open-Source" style="text;html=1;align=center;verticalAlign=middle;whiteSpace=wrap;rounded=0;fontSize=18;movable=1;resizable=1;rotatable=1;deletable=1;editable=1;locked=0;connectable=1;" vertex="1" parent="1">
          <mxGeometry x="1180" y="680" width="190" height="30" as="geometry" />
        </mxCell>
        <mxCell id="K-4Sev6lLw2hqcVgsduo-155" value="U-Boot Common" style="text;html=1;align=center;verticalAlign=middle;whiteSpace=wrap;rounded=0;fontSize=18;movable=1;resizable=1;rotatable=1;deletable=1;editable=1;locked=0;connectable=1;" vertex="1" parent="1">
          <mxGeometry x="1170" y="130" width="190" height="30" as="geometry" />
        </mxCell>
        <mxCell id="K-4Sev6lLw2hqcVgsduo-157" value="&lt;font style=&quot;font-size: 18px;&quot;&gt;&lt;b&gt;S01E03 BL33 U-Boot&lt;/b&gt;&lt;/font&gt;" style="text;html=1;align=center;verticalAlign=middle;whiteSpace=wrap;rounded=0;movable=1;resizable=1;rotatable=1;deletable=1;editable=1;locked=0;connectable=1;" vertex="1" parent="1">
          <mxGeometry x="-40" y="60" width="210" height="40" as="geometry" />
        </mxCell>
      </root>
    </mxGraphModel>
  </diagram>
</mxfile>
